<?xml version="1.0" standalone="no"?><!DOCTYPE svg PUBLIC "-//W3C//DTD SVG 1.1//EN" "http://www.w3.org/Graphics/SVG/1.1/DTD/svg11.dtd"><svg t="1611997115467" class="icon" viewBox="0 0 1024 1024" version="1.1" xmlns="http://www.w3.org/2000/svg" p-id="8195" xmlns:xlink="http://www.w3.org/1999/xlink" width="200" height="200"><defs><style type="text/css"></style></defs><path d="M511.6 919.3c-24.8 0-44.8-20.1-44.8-44.8l0.7-722.5c0-24.7 20.1-44.7 44.8-44.7 24.7 0 44.8 20.1 44.7 44.8l-0.7 722.5c0 24.6-20 44.7-44.7 44.7z" fill="#d81e06" p-id="8196"></path><path d="M881.8 502.2c-11.5 0-22.9-4.4-31.7-13.1L591.6 230.6c-21.2-21.2-49.4-32.9-79.4-32.9-30 0-58.1 11.7-79.3 32.9L174.5 489c-17.5 17.5-45.8 17.5-63.3 0s-17.5-45.8 0-63.3l258.5-258.5c38.1-38.1 88.8-59.1 142.7-59.1s104.6 21 142.7 59.1l258.5 258.5c17.5 17.5 17.5 45.8 0 63.3-8.9 8.8-20.4 13.2-31.8 13.2z" fill="#d81e06" p-id="8197"></path></svg>