<?xml version="1.0" standalone="no"?><!DOCTYPE svg PUBLIC "-//W3C//DTD SVG 1.1//EN" "http://www.w3.org/Graphics/SVG/1.1/DTD/svg11.dtd"><svg class="icon" width="200px" height="200.00px" viewBox="0 0 1024 1024" version="1.1" xmlns="http://www.w3.org/2000/svg"><path fill="#707070" d="M776.7552 909.312H229.888c-53.6576 0-97.28-43.6224-97.28-97.28V415.6416c0-30.464 14.5408-59.5456 38.912-77.824l273.408-205.056c34.3552-25.7536 82.3808-25.7536 116.736 0l273.408 205.056c24.3712 18.2784 38.912 47.36 38.912 77.824v396.4416c0.0512 53.6064-43.6224 97.2288-97.2288 97.2288zM503.296 164.5056c-9.7792 0-19.5072 3.072-27.648 9.1648L202.24 378.7776a46.34112 46.34112 0 0 0-18.432 36.864v396.4416c0 25.3952 20.6848 46.08 46.08 46.08h546.8672c25.3952 0 46.08-20.6848 46.08-46.08V415.6416c0-14.4384-6.912-28.2112-18.432-36.864l-273.408-205.056c-8.192-6.144-17.92-9.216-27.6992-9.216z"  /><path fill="#707070" d="M638.6176 799.488c-14.1312 0-25.6-11.4688-25.6-25.6v-122.5728c0-59.9552-48.7936-108.6976-108.6976-108.6976s-108.6976 48.7936-108.6976 108.6976v122.5728c0 14.1312-11.4688 25.6-25.6 25.6s-25.6-11.4688-25.6-25.6v-122.5728c0-88.1664 71.7312-159.8976 159.8976-159.8976s159.8976 71.7312 159.8976 159.8976v122.5728c0 14.1824-11.4688 25.6-25.6 25.6z"  /></svg>