<?xml version="1.0" standalone="no"?><!DOCTYPE svg PUBLIC "-//W3C//DTD SVG 1.1//EN" "http://www.w3.org/Graphics/SVG/1.1/DTD/svg11.dtd"><svg class="icon" width="200px" height="200.00px" viewBox="0 0 1024 1024" version="1.1" xmlns="http://www.w3.org/2000/svg"><path fill="#707070" d="M298.9568 480.256c-93.44 0-169.472-76.032-169.472-169.472s76.032-169.472 169.472-169.472 169.472 76.032 169.472 169.472-76.032 169.472-169.472 169.472z m0-287.6928c-65.2288 0-118.272 53.0432-118.272 118.272 0 65.2288 53.0432 118.272 118.272 118.272 65.2288 0 118.272-53.0432 118.272-118.272 0-65.2288-53.0432-118.272-118.272-118.272zM714.752 480.256c-93.44 0-169.472-76.032-169.472-169.472s76.032-169.472 169.472-169.472 169.472 76.032 169.472 169.472-76.032 169.472-169.472 169.472z m0-287.6928c-65.2288 0-118.272 53.0432-118.272 118.272 0 65.2288 53.0432 118.272 118.272 118.272 65.2288 0 118.272-53.0432 118.272-118.272 0-65.2288-53.0432-118.272-118.272-118.272zM298.9568 871.5264c-93.44 0-169.472-76.032-169.472-169.472s76.032-169.472 169.472-169.472 169.472 76.032 169.472 169.472-76.032 169.472-169.472 169.472z m0-287.744c-65.2288 0-118.272 53.0432-118.272 118.272s53.0432 118.272 118.272 118.272c65.2288 0 118.272-53.0432 118.272-118.272s-53.0432-118.272-118.272-118.272zM714.752 871.5264c-93.44 0-169.472-76.032-169.472-169.472s76.032-169.472 169.472-169.472 169.472 76.032 169.472 169.472-76.032 169.472-169.472 169.472z m0-287.744c-65.2288 0-118.272 53.0432-118.272 118.272s53.0432 118.272 118.272 118.272c65.2288 0 118.272-53.0432 118.272-118.272s-53.0432-118.272-118.272-118.272z"  /></svg>